<svg xmlns="http://www.w3.org/2000/svg" xmlns:xlink="http://www.w3.org/1999/xlink" viewBox="0 0 100 100">
    <defs>
        <path id="a" d="M36.826 2.222l-28.82 16.64A15.733 15.733 0 0 0 .139 32.486v33.28c0 5.621 3 10.814 7.867 13.625l28.82 16.64a15.735 15.735 0 0 0 15.733 0l28.822-16.64a15.734 15.734 0 0 0 7.866-13.624v-33.28c0-5.621-2.999-10.814-7.866-13.625L52.56 2.222A15.722 15.722 0 0 0 44.693.115c-2.717 0-5.432.702-7.867 2.107z"/>
    </defs>
    <g fill="none" fill-rule="evenodd">
        <g transform="translate(5 .719)">
            <mask id="b" fill="#fff">
                <use xlink:href="#a"/>
            </mask>
            <path fill="#0F186D" d="M56.091 107.15h53.879V41.874H56.091z" mask="url(#b)"/>
            <path fill="#583889" d="M86.477 91.485L59.41 73.347l.127-.357 52.056 5.441.069.37-24.987 12.697z" mask="url(#b)"/>
            <path fill="#583889" d="M111.573 78.626l-52.056-5.442 27.07 18.138z" mask="url(#b)"/>
            <path fill="#582C7D" d="M47.017 106.936l-.177-.264 12.494-33.555.363-.014 15.616 34.464-.185.276z" mask="url(#b)"/>
            <path fill="#582C7D" d="M59.517 73.184l-12.493 33.557 28.11.906z" mask="url(#b)"/>
            <path fill="#583889" d="M74.956 107.729L59.339 73.266l.287-.243 27.07 18.138.05.275-11.451 16.324z" mask="url(#b)"/>
            <path fill="#583889" d="M59.517 73.184l15.617 34.463 11.452-16.324z" mask="url(#b)"/>
            <path fill="#5C518F" d="M59.497 73.38l-.158-.273 12.493-29.021.308-.071 39.562 34.464-.149.342z" mask="url(#b)"/>
            <path fill="#5C518F" d="M72.011 44.162L59.518 73.185l52.056 5.441z" mask="url(#b)"/>
            <path fill="#719560" d="M71.882 44.31l.19-.333L115.8 58.488l.13.225-4.165 19.953-.32.107z" mask="url(#b)"/>
            <path fill="#719560" d="M72.011 44.162l39.563 34.464 4.164-19.952z" mask="url(#b)"/>
            <path fill="#719560" d="M71.949 44.348l.006-.372 55.18-16.326.238.256-11.451 30.835-.245.118z" mask="url(#b)"/>
            <path fill="#719560" d="M127.19 27.837L72.011 44.162l43.726 14.512z" mask="url(#b)"/>
            <path fill="#583889" d="M24.06 99.672l-.057-.343 35.399-26.301.299.225-12.494 33.556-.242.117z" mask="url(#b)"/>
            <path fill="#583889" d="M59.517 73.184L24.119 99.485l22.905 7.256z" mask="url(#b)"/>
            <path fill="#5C518F" d="M23.936 99.555L17.69 83.231l.137-.26 41.644-9.976.163.347-35.398 26.301z" mask="url(#b)"/>
            <path fill="#5C518F" d="M17.873 83.161l6.246 16.324 35.399-26.301z" mask="url(#b)"/>
            <path fill="#657079" d="M48.935 54.232l.093-.272 22.905-9.977.258.257-12.493 29.022-.352.017z" mask="url(#b)"/>
            <path fill="#657079" d="M72.011 44.162l-22.904 9.977 10.411 19.046z" mask="url(#b)"/>
            <path fill="#626681" d="M17.74 83.018l31.232-29.023.306.05L59.69 73.091l-.127.284-41.645 9.976z" mask="url(#b)"/>
            <path fill="#626681" d="M49.107 54.139L17.873 83.161l41.644-9.976z" mask="url(#b)"/>
            <path fill="#77A853" d="M47.996 35.277l-.048-.34 22.904-17.232.313.149 1.042 26.301-.265.19z" mask="url(#b)"/>
            <path fill="#77A853" d="M70.97 17.861L48.065 35.093l23.946 9.069z" mask="url(#b)"/>
            <path fill="#6A816E" d="M48.911 54.149L47.87 35.104l.265-.193 23.946 9.069.009.362-22.906 9.977z" mask="url(#b)"/>
            <path fill="#6A816E" d="M72.011 44.162l-23.946-9.069 1.042 19.046z" mask="url(#b)"/>
            <path fill="#6A816E" d="M17.678 83.137l4.164-34.463.233-.169 27.07 5.443.094.334-31.233 29.022z" mask="url(#b)"/>
            <path fill="#6A816E" d="M49.107 54.139l-27.07-5.442-4.164 34.464z" mask="url(#b)"/>
            <path fill="#719560" d="M71.815 44.17l-1.041-26.301.23-.2 56.22 9.976.021.38L72.066 44.35z" mask="url(#b)"/>
            <path fill="#719560" d="M70.97 17.861l1.041 26.301 55.18-16.324z" mask="url(#b)"/>
            <path fill="#B7CD3E" d="M70.936 18.054l-.128-.303L83.301-.389l.268-.052 43.726 28.114-.139.357z" mask="url(#b)"/>
            <path fill="#B7CD3E" d="M83.463-.277L70.97 17.861l56.221 9.977z" mask="url(#b)"/>
            <path fill="#605C87" d="M-16.532 89.7l.012-.382 34.358-6.348.217.121 6.246 16.326-.229.259z" mask="url(#b)"/>
            <path fill="#605C87" d="M-16.485 89.509l40.604 9.977-6.246-16.326z" mask="url(#b)"/>
            <path fill="#719560" d="M21.998 48.889l-.052-.365L47.975 34.92l.285.163 1.041 19.045-.234.203z" mask="url(#b)"/>
            <path fill="#719560" d="M48.065 35.093L22.036 48.698l27.07 5.441z" mask="url(#b)"/>
            <path fill="#77A853" d="M21.842 48.674l3.125-25.394.283-.151L48.155 34.92l.001.347-26.028 13.604z" mask="url(#b)"/>
            <path fill="#77A853" d="M25.161 23.303l-3.125 25.394 26.029-13.605z" mask="url(#b)"/>
            <path fill="#7FB947" d="M25.071 23.476l.066-.367 45.81-5.442.14.351L48.182 35.25l-.206.017z" mask="url(#b)"/>
            <path fill="#7FB947" d="M70.97 17.861l-45.81 5.442 22.905 11.79z" mask="url(#b)"/>
            <path fill="#687775" d="M-16.667 89.438l10.412-26.302.307-.077 23.945 19.952-.088.342-34.358 6.349z" mask="url(#b)"/>
            <path fill="#687775" d="M-6.073 63.208l-10.412 26.301 34.358-6.348z" mask="url(#b)"/>
            <path fill="#719560" d="M-6.199 63.359l.036-.324 28.111-14.512.283.197-4.164 34.465-.319.126z" mask="url(#b)"/>
            <path fill="#719560" d="M22.037 48.698l-28.11 14.51L17.873 83.16z" mask="url(#b)"/>
            <path fill="#77A853" d="M-6.268 63.195l2.081-29.929.295-.156 26.028 15.419-.009.342-28.111 14.511z" mask="url(#b)"/>
            <path fill="#77A853" d="M-3.991 33.279l-2.082 29.929 28.11-14.51z" mask="url(#b)"/>
            <path fill="#AACA40" d="M25.028 23.16L58.343-7.676l.309.057 12.493 25.394-.153.281-45.809 5.442z" mask="url(#b)"/>
            <path fill="#AACA40" d="M58.476-7.532L25.161 23.303l45.809-5.442z" mask="url(#b)"/>
            <path fill="#C6D23C" d="M70.794 17.948L58.301-7.446l.229-.274L83.517-.464l.107.297-12.493 18.139z" mask="url(#b)"/>
            <path fill="#C6D23C" d="M83.463-.277L58.476-7.532 70.97 17.861z" mask="url(#b)"/>
            <path fill="#7FB947" d="M-4.091 33.447l.036-.353 29.151-9.976.258.209-3.123 25.394-.294.145z" mask="url(#b)"/>
            <path fill="#7FB947" d="M25.161 23.303L-3.99 33.28l26.026 15.417z" mask="url(#b)"/>
            <path fill="#AACA40" d="M-4.187 33.279V6.072l.295-.169 29.151 17.231-.035.354-29.151 9.976z" mask="url(#b)"/>
            <path fill="#AACA40" d="M-3.991 6.072V33.28l29.151-9.977z" mask="url(#b)"/>
            <path fill="#C9D63B" d="M24.965 23.321l-3.123-32.65.204-.213 36.439 1.814.123.34-33.315 30.835z" mask="url(#b)"/>
            <path fill="#C9D63B" d="M58.476-7.532L22.037-9.347l3.124 32.65z" mask="url(#b)"/>
            <path fill="#D1D739" d="M-4.09 6.24l-.001-.337L21.937-9.515l.295.15 3.123 32.649-.294.187z" mask="url(#b)"/>
            <path fill="#D1D739" d="M22.037-9.347L-3.991 6.072l29.152 17.231z" mask="url(#b)"/>
        </g>
        <g fill="#FFF">
            <path d="M27.696 32.082a2.339 2.339 0 0 0-2.336 2.337v26.028l5.057-5.059c.247-.246.581-.384.93-.384h35.04a2.339 2.339 0 0 0 2.336-2.336v-18.25a2.339 2.339 0 0 0-2.337-2.336h-38.69zm-3.65 32.85a1.311 1.311 0 0 1-1.313-1.313v-29.2a4.97 4.97 0 0 1 4.963-4.965h38.69a4.97 4.97 0 0 1 4.964 4.965v18.249a4.97 4.97 0 0 1-4.964 4.964H31.89l-6.914 6.915a1.312 1.312 0 0 1-.93.385z"/>
            <path d="M71.69 34.758h-.34v2.629h.34a2.338 2.338 0 0 1 2.336 2.335v26.027l-5.057-5.056a1.314 1.314 0 0 0-.93-.385H33a2.331 2.331 0 0 1-2.2-1.585l-1.956 1.955A4.96 4.96 0 0 0 33 62.936h34.496l6.914 6.915a1.319 1.319 0 0 0 1.432.285c.492-.203.811-.683.811-1.214v-29.2a4.969 4.969 0 0 0-4.964-4.964"/>
            <path d="M44.168 46.957c.354-.407.616-.889.786-1.444.169-.555.253-1.2.253-1.932 0-.922-.15-1.721-.447-2.397-.297-.675-.723-1.187-1.276-1.533-.553-.347-1.186-.52-1.903-.52-.508 0-.98.096-1.412.288a3.1 3.1 0 0 0-1.117.838c-.312.365-.558.834-.74 1.404-.179.57-.269 1.21-.269 1.92 0 1.448.338 2.564 1.013 3.345.676.783 1.53 1.173 2.56 1.173.424 0 .859-.09 1.306-.266a6.503 6.503 0 0 0-1.01-.602c-.403-.2-.68-.355-.829-.464a.54.54 0 0 1-.222-.463.6.6 0 0 1 .214-.456.681.681 0 0 1 .472-.197c.522 0 1.395.434 2.62 1.306m2.002 1.39c.372.253.778.498 1.22.735.44.237.733.428.876.567.143.141.213.34.213.597 0 .183-.083.367-.252.55a.807.807 0 0 1-.614.274c-.195 0-.432-.062-.71-.188a8.048 8.048 0 0 1-.978-.55c-.375-.241-.787-.521-1.233-.842-.83.425-1.85.635-3.058.635-.98 0-1.857-.156-2.633-.467a5.17 5.17 0 0 1-1.954-1.348 5.85 5.85 0 0 1-1.19-2.093 8.387 8.387 0 0 1-.4-2.636c0-.968.14-1.856.418-2.664.278-.806.68-1.495 1.206-2.061.528-.567 1.169-1 1.925-1.301.756-.3 1.615-.451 2.576-.451 1.306 0 2.428.265 3.364.795a5.151 5.151 0 0 1 2.126 2.258c.48.977.721 2.123.721 3.44 0 1.999-.541 3.583-1.623 4.75M52.98 44.99h3.762l-1.899-5.198-1.862 5.197zm5.05 3.495l-.6-1.58h-5.12l-.601 1.615c-.234.629-.435 1.055-.601 1.275-.167.22-.438.33-.817.33-.32 0-.604-.117-.85-.351-.246-.235-.37-.501-.37-.8 0-.171.03-.349.087-.532.057-.183.152-.438.283-.765l3.222-8.177c.091-.234.2-.517.33-.846.13-.33.266-.602.413-.82a1.65 1.65 0 0 1 .576-.528c.237-.135.53-.202.879-.202.355 0 .652.067.89.202.236.134.43.308.575.52.147.211.27.44.37.683.1.243.227.568.382.974l3.289 8.126c.258.618.387 1.068.387 1.349 0 .292-.121.56-.365.803a1.203 1.203 0 0 1-.881.364c-.2 0-.373-.035-.515-.106a1.04 1.04 0 0 1-.36-.293 2.665 2.665 0 0 1-.314-.566c-.112-.255-.208-.48-.288-.675z"/>
        </g>
    </g>
</svg>
