<svg xmlns="http://www.w3.org/2000/svg" xmlns:xlink="http://www.w3.org/1999/xlink" viewBox="0 0 100 100">
    <defs>
        <path id="a" d="M0 0h90.889v100H0z"/>
    </defs>
    <g fill="none" fill-rule="evenodd">
        <g opacity=".5">
            <path fill="#FFF" d="M36.349 40.894c.283-.823.694-1.524 1.23-2.103a5.337 5.337 0 0 1 1.964-1.327c.77-.306 1.647-.46 2.628-.46 1.332 0 2.476.27 3.43.81a5.248 5.248 0 0 1 2.169 2.305c.49.996.736 2.166.736 3.509 0 2.038-.552 3.654-1.656 4.845.38.257.794.507 1.244.749.45.242.748.436.894.578.146.144.218.347.218.61 0 .186-.086.374-.257.56a.821.821 0 0 1-.627.28c-.2 0-.44-.064-.723-.192a8.184 8.184 0 0 1-1-.561 30 30 0 0 1-1.256-.86c-.847.434-1.887.65-3.12.65-.998 0-1.894-.16-2.685-.478a5.273 5.273 0 0 1-1.993-1.375A5.976 5.976 0 0 1 36.33 46.3a8.55 8.55 0 0 1-.407-2.69c0-.987.142-1.892.425-2.716zm13.55 7.676c.058-.188.155-.447.289-.78l3.286-8.341.337-.864c.132-.336.27-.614.42-.836.149-.222.345-.402.588-.54.242-.136.542-.205.897-.205.362 0 .665.069.907.206.243.137.439.314.587.53.15.216.275.449.377.697.102.248.233.579.39.994l3.355 8.288c.263.63.395 1.09.395 1.376 0 .298-.124.57-.372.82a1.225 1.225 0 0 1-.9.372c-.203 0-.378-.037-.524-.11a1.081 1.081 0 0 1-.368-.298 2.68 2.68 0 0 1-.32-.578c-.114-.26-.211-.49-.293-.687L58.336 47h-5.221l-.614 1.647c-.24.642-.444 1.076-.613 1.302-.17.224-.447.337-.832.337-.328 0-.617-.121-.868-.36-.251-.24-.376-.511-.376-.814 0-.176.028-.357.087-.543zm17.573 6.692a2.384 2.384 0 0 0 2.383-2.383V34.265a2.385 2.385 0 0 0-2.383-2.383H28.008a2.386 2.386 0 0 0-2.383 2.383v26.548l5.159-5.158c.25-.251.592-.393.948-.393h35.74z"/>
            <path fill="#FFF" d="M42.206 48.219c.433 0 .876-.091 1.332-.271a6.633 6.633 0 0 0-1.029-.614c-.412-.205-.695-.362-.846-.473a.551.551 0 0 1-.228-.473c0-.176.073-.33.22-.465a.699.699 0 0 1 .481-.201c.531 0 1.423.443 2.673 1.33.362-.413.628-.904.801-1.471.172-.566.258-1.223.258-1.97 0-.941-.15-1.756-.455-2.445-.304-.69-.738-1.211-1.302-1.564-.563-.354-1.21-.53-1.94-.53-.52 0-1 .098-1.442.293-.44.196-.82.48-1.138.855-.319.373-.57.85-.754 1.432-.184.582-.276 1.234-.276 1.959 0 1.477.345 2.615 1.034 3.412.69.798 1.56 1.196 2.611 1.196M55.698 39.746l-1.9 5.301h3.837z"/>
            <path fill="#FFF" d="M72.882 37.292h-.347v15.587a5.068 5.068 0 0 1-5.063 5.063H32.286l-1.113 1.114a2.38 2.38 0 0 0 2.245 1.616h35.74c.356 0 .697.141.949.392l5.158 5.159V39.675a2.386 2.386 0 0 0-2.383-2.383"/>
            <g transform="translate(5)">
                <mask id="b" fill="#fff">
                    <use xlink:href="#a"/>
                </mask>
                <path fill="#FFF" d="M72.944 69.458a1.339 1.339 0 0 1-2.287.948l-7.054-7.053H28.418a5.06 5.06 0 0 1-4.24-2.303l-3.946 3.946a1.338 1.338 0 0 1-1.46.291 1.343 1.343 0 0 1-.828-1.238V34.265a5.07 5.07 0 0 1 5.063-5.064h39.464a5.07 5.07 0 0 1 5.064 5.064v.346h.347a5.07 5.07 0 0 1 5.062 5.064v29.783zm9.945-50.314l-29.445-17a15.994 15.994 0 0 0-15.999 0L8 19.144A15.998 15.998 0 0 0 0 33v34a15.998 15.998 0 0 0 8 13.856l29.445 17a15.994 15.994 0 0 0 16 0l29.444-17c4.951-2.858 8-8.139 8-13.856V33a15.997 15.997 0 0 0-8-13.856z" mask="url(#b)"/>
            </g>
        </g>
    </g>
</svg>
